<?xml version="1.0" encoding="utf-8"?>
<!-- Generator: Adobe Illustrator 21.1.0, SVG Export Plug-In . SVG Version: 6.00 Build 0)  -->
<svg version="1.1" id="Camada_1" xmlns="http://www.w3.org/2000/svg" xmlns:xlink="http://www.w3.org/1999/xlink" x="0px" y="0px"
	 viewBox="0 0 316 251" style="enable-background:new 0 0 316 251;" xml:space="preserve">
<style type="text/css">
	.st0{fill-rule:evenodd;clip-rule:evenodd;fill:#FFFFFF;}
	.st1{fill:#FFFFFF;}
</style>
<g id="Guias_para_prancheta">
</g>
<g>
	<circle class="st0" cx="186.4" cy="43.2" r="15.6"/>
	<path class="st0" d="M220.6,122.9c-9-25.3-27.4-42.9-45.9-60.5c-14.6-14-29.3-28-39.7-46c3.6,40.9,30.4,61.3,55.3,80.1
		C201.5,105,212.3,113.2,220.6,122.9z"/>
	<path class="st0" d="M114.1,120.8c-11-10.7-17.8-25.6-17.8-42.1c0-23.4,13.8-43.7,33.6-53.1c0.1,0.6,0.2,1.2,0.3,1.9
		c0,0.1,0,0.2,0.1,0.3c0.1,0.5,0.2,1.1,0.3,1.6c0,0.2,0.1,0.4,0.1,0.5c0.1,0.5,0.2,1,0.4,1.5c0,0.2,0.1,0.3,0.1,0.5
		c0.1,0.5,0.2,1,0.4,1.5c0,0.2,0.1,0.3,0.1,0.5c0.1,0.5,0.3,1,0.4,1.4c0,0.2,0.1,0.4,0.2,0.5c0.1,0.4,0.2,0.8,0.4,1.2
		c0.1,0.2,0.1,0.4,0.2,0.6c0.1,0.4,0.3,0.9,0.4,1.3c0.1,0.2,0.1,0.3,0.2,0.5c0.2,0.5,0.3,0.9,0.5,1.4c0.1,0.2,0.1,0.3,0.2,0.5
		c0.2,0.5,0.3,0.9,0.5,1.4c0.1,0.1,0.1,0.3,0.2,0.4c0.2,0.5,0.4,0.9,0.5,1.4c0.1,0.2,0.1,0.3,0.2,0.5c0.2,0.4,0.3,0.8,0.5,1.2
		c0.1,0.2,0.1,0.3,0.2,0.5c0.2,0.4,0.3,0.8,0.5,1.1c0.1,0.2,0.1,0.3,0.2,0.5c0.7,1.6,1.5,3.1,2.3,4.6c0.1,0.2,0.2,0.4,0.3,0.5
		c0.2,0.4,0.4,0.7,0.6,1.1c0.1,0.2,0.2,0.4,0.3,0.6c0.2,0.3,0.4,0.6,0.6,1c0.1,0.2,0.2,0.3,0.3,0.5c0.2,0.3,0.4,0.7,0.6,1
		c0.1,0.2,0.2,0.4,0.3,0.6c0.2,0.3,0.4,0.6,0.6,1c0.1,0.2,0.2,0.4,0.3,0.5c0.2,0.3,0.4,0.7,0.7,1c0.1,0.2,0.3,0.4,0.4,0.6
		c0.2,0.3,0.4,0.6,0.6,0.8c0.2,0.3,0.4,0.5,0.5,0.8c0.1,0.1,0.2,0.3,0.3,0.4c0.3,0.4,0.5,0.8,0.8,1.1c0.1,0.1,0.2,0.2,0.3,0.4
		c0.3,0.3,0.5,0.7,0.8,1c0.1,0.2,0.2,0.3,0.4,0.5c0.2,0.2,0.3,0.4,0.5,0.6c0.2,0.3,0.4,0.5,0.7,0.8c0.2,0.2,0.3,0.4,0.5,0.6
		c0.2,0.2,0.4,0.5,0.6,0.7c0.2,0.2,0.4,0.5,0.6,0.7c0.2,0.2,0.4,0.4,0.6,0.7c0.2,0.3,0.4,0.5,0.7,0.8c0.1,0.1,0.2,0.3,0.4,0.4
		c0.3,0.3,0.6,0.6,0.8,1c0.1,0.2,0.3,0.3,0.4,0.5c0.3,0.3,0.6,0.6,0.9,0.9c0.1,0.1,0.2,0.2,0.3,0.3c0.4,0.4,0.7,0.8,1.1,1.1
		c0.1,0.1,0.1,0.1,0.2,0.2c0.2,0.2,0.4,0.4,0.6,0.6c0.1,0.1,0.2,0.2,0.2,0.2c0.4,0.4,0.7,0.7,1.1,1.1c0.1,0.1,0.1,0.1,0.2,0.2
		c0.4,0.4,0.8,0.8,1.2,1.1c0.1,0.1,0.2,0.1,0.2,0.2c0.4,0.4,0.7,0.7,1.1,1.1c0.1,0.1,0.2,0.1,0.2,0.2c0.2,0.2,0.4,0.4,0.6,0.6
		C144.2,92.5,127.2,104.2,114.1,120.8z"/>
	<path class="st0" d="M185.1,100.3c5.7,4.5,11.5,9,17.2,13.4c-10.7,14.4-27.9,23.7-47.2,23.7c-9.1,0-17.8-2.1-25.5-5.9
		c6.1-3.6,12.6-6.9,19.3-10.3C161.1,115.1,173.6,108.7,185.1,100.3z"/>
	<path class="st0" d="M199.7,79.1c8.1-9.6,14.7-21.5,18.5-36.7c-8.5,10.3-18.4,18.7-28.8,26.4C192.9,72.2,196.3,75.6,199.7,79.1z"/>
	<path class="st0" d="M109,138.9c10.5-8.9,23.7-15.7,37.3-22.6c11.4-5.8,23.3-11.9,34.1-19.6c-4.9-3.7-9.8-7.6-14.5-11.7
		C143.9,99.5,122.3,114.3,109,138.9z"/>
	<path class="st1" d="M119.7,178.8c0.2-1.5,0.5-3,0.9-4.5c0.5-1.5,1.1-2.9,1.8-4.2l0,0c0.7-1.4,1.6-2.7,2.6-3.9
		c1-1.2,2.2-2.4,3.4-3.5c0,0,0,0,0,0l0,0c0,0,0,0,0,0c1.2-1.1,2.5-2,3.9-2.8c1.4-0.8,2.8-1.5,4.3-2.1h0c1.5-0.6,3-1,4.6-1.3
		c1.5-0.3,3.1-0.4,4.7-0.4c1.5,0,3.1,0.1,4.5,0.4c1.5,0.3,2.9,0.7,4.3,1.3h0c1.4,0.6,2.7,1.3,3.8,2.1c1.2,0.8,2.3,1.8,3.3,2.8l0,0
		c1,1.1,1.9,2.2,2.6,3.4c0.7,1.2,1.3,2.5,1.8,3.9l0,0c0.4,1.4,0.7,2.8,0.9,4.2c0.1,1.5,0.1,2.9,0,4.4c-0.2,1.5-0.5,3-0.9,4.5
		c-0.5,1.5-1.1,2.9-1.8,4.3l0,0c-0.8,1.4-1.6,2.7-2.6,3.9c-1,1.2-2.1,2.3-3.3,3.4c-1.2,1.1-2.6,2-3.9,2.9c-1.4,0.8-2.8,1.5-4.3,2.1
		h0c-1.5,0.6-3,1-4.5,1.3c-1.5,0.3-3.1,0.4-4.6,0.4c-1.6,0-3.1-0.1-4.6-0.4c-1.5-0.3-2.9-0.7-4.3-1.3h0c-1.4-0.6-2.7-1.2-3.8-2.1
		c-1.2-0.8-2.3-1.7-3.3-2.8l0,0c-1-1.1-1.9-2.3-2.7-3.5c-0.7-1.2-1.3-2.6-1.8-3.9l0,0c-0.4-1.4-0.7-2.8-0.9-4.2
		C119.5,181.8,119.6,180.3,119.7,178.8L119.7,178.8z M128.7,178.7c-0.1,1-0.1,2,0,2.9c0.1,0.9,0.3,1.8,0.5,2.7
		c0.3,0.9,0.6,1.7,1.1,2.5c0.5,0.8,1,1.5,1.6,2.2c0,0,0,0,0,0l0,0c0,0,0,0,0,0c0.6,0.7,1.3,1.3,2.1,1.8c0.7,0.5,1.5,1,2.4,1.3h0
		c0.9,0.4,1.7,0.6,2.7,0.8c0.9,0.2,1.9,0.3,2.8,0.3c2,0,3.9-0.4,5.7-1.1l0,0c0.9-0.4,1.8-0.8,2.6-1.3c0.8-0.5,1.7-1.1,2.4-1.8
		c0,0,0,0,0,0l0,0c0,0,0,0,0,0c0.8-0.7,1.5-1.5,2.1-2.3c0.6-0.8,1.2-1.6,1.7-2.5l0,0c0.5-0.9,0.8-1.8,1.1-2.7
		c0.3-0.9,0.5-1.9,0.6-2.9c0.2-2,0-3.8-0.5-5.5l0,0c-0.3-0.9-0.6-1.7-1.1-2.5c-0.5-0.8-1-1.5-1.7-2.3l0,0c-0.6-0.7-1.3-1.3-2-1.8
		l0,0c-0.7-0.5-1.5-1-2.4-1.3l0,0c-0.8-0.4-1.7-0.6-2.6-0.8c-0.9-0.2-1.9-0.3-2.9-0.3c-1,0-2,0.1-2.9,0.3c-1,0.2-1.9,0.5-2.9,0.8
		l0,0c-0.9,0.4-1.8,0.8-2.7,1.3c-0.8,0.5-1.7,1.1-2.4,1.8c-0.8,0.7-1.5,1.5-2.2,2.3c-0.6,0.8-1.2,1.6-1.6,2.5
		c-0.5,0.9-0.8,1.8-1.1,2.7C129,176.8,128.8,177.7,128.7,178.7z"/>
	<path class="st0" d="M86.1,200.9h-8.5l4-36.9c0.1-1.1,0.4-2.1,0.7-2.9c0.4-0.9,0.9-1.7,1.5-2.4h0c0.6-0.7,1.4-1.2,2.2-1.6
		c0.8-0.3,1.7-0.5,2.7-0.5c0.7,0,1.4,0.1,2,0.3h0c0.6,0.2,1.2,0.5,1.7,1l0,0c0.5,0.4,0.9,0.9,1.4,1.5c0.4,0.6,0.8,1.3,1.1,2l0,0
		l10.2,25.1l3.2-29.5h8.6l-4,37c-0.2,2.2-0.9,4-2.1,5.3l0,0c-0.6,0.7-1.4,1.3-2.2,1.6c-0.8,0.4-1.7,0.5-2.6,0.5
		c-0.7,0-1.4-0.1-2.1-0.3c-0.6-0.2-1.2-0.5-1.8-1l0,0c-0.5-0.4-1-0.9-1.4-1.6c-0.4-0.6-0.8-1.3-1.1-2l0,0l-10.2-25.3L86.1,200.9z"/>
	<path class="st0" d="M52.8,156.8l-2.9,26.9c-0.2,1.6-0.2,3.1,0.1,4.3c0.2,1.2,0.6,2.1,1.2,2.9c0.6,0.8,1.3,1.3,2.2,1.7
		c0.9,0.4,2.1,0.6,3.4,0.6c1.3,0,2.5-0.2,3.5-0.6c1-0.4,1.8-0.9,2.6-1.7l0,0c0.8-0.8,1.4-1.7,1.8-2.9c0.5-1.2,0.8-2.6,1-4.3
		l2.9-26.9h8.8l-3,27.2c-0.3,2.6-0.9,4.9-1.9,7c-1,2.1-2.4,4-4.1,5.6c-1.7,1.6-3.6,2.8-5.8,3.6c-2.1,0.8-4.4,1.2-6.9,1.2
		c-2.5,0-4.7-0.4-6.6-1.2c-2-0.8-3.6-2-5-3.6c-1.4-1.6-2.3-3.5-2.8-5.6c-0.5-2.1-0.6-4.4-0.4-7l3-27.2H52.8z"/>
	<path class="st0" d="M169.7,191L169.7,191l2.5-22.8l0,0c0.4-2.9,2.1-5.5,4.6-7.3c2.4-1.8,5.6-2.9,9.2-3.1h0.1l15.9,0l1.5,0
		l-0.8,7.7h-14c-2,0.1-3.8,0.3-5.2,1c-1.2,0.6-2.1,1.7-2.5,3.7l-0.6,5.6h16.6l-0.8,7.6h-16.6l-0.6,5.8l0-0.1c-0.1,2,0.6,3.1,1.7,3.7
		c1.2,0.7,3,0.9,5,1h14l-0.8,7.7l-1.5,0l-15.9,0h-0.1c-3.5-0.2-6.5-1.3-8.5-3.1C170.6,196.5,169.5,194,169.7,191z"/>
	<path class="st0" d="M203.8,201.5l0.2-1.5l0.6-5.4l0.2-1.5h16.5c2.1,0,3.6-0.3,4.7-1c0.4-0.3,0.8-0.6,1-1l0,0
		c0.3-0.4,0.4-1,0.5-1.6c0.1-0.5,0-0.9-0.1-1.3c-0.1-0.4-0.3-0.8-0.6-1.1c-0.3-0.4-0.9-0.8-1.6-1.3c-0.8-0.5-1.8-1.1-3-1.7h0l-7-3.5
		h0c-1.4-0.7-2.5-1.4-3.5-2.2c-1-0.8-1.8-1.7-2.5-2.6c-0.7-1-1.1-2-1.4-3.1c-0.3-1.1-0.3-2.3-0.2-3.5c0.2-1.8,0.7-3.4,1.6-4.8
		c0.9-1.4,2-2.7,3.5-3.7c1.5-1,3.1-1.7,5-2.2c1.8-0.5,3.8-0.7,6-0.7h14.2l-0.9,8.4h-16.1c-0.7,0-1.3,0.1-1.8,0.2
		c-0.5,0.1-0.9,0.4-1.3,0.6c-0.3,0.3-0.6,0.5-0.8,0.8c-0.2,0.3-0.3,0.7-0.3,1.1c0,0.4,0,0.7,0.1,1.1c0.1,0.3,0.3,0.6,0.6,0.9
		c0.3,0.4,0.9,0.8,1.8,1.3c0.9,0.6,2.1,1.2,3.7,2h0l6.1,3h0c1.4,0.7,2.6,1.5,3.6,2.3c1,0.8,1.9,1.7,2.5,2.7c0.7,1,1.1,2.1,1.4,3.2
		c0.3,1.2,0.3,2.4,0.2,3.7c-0.2,1.9-0.8,3.7-1.7,5.2c-0.9,1.6-2.1,2.9-3.7,4c-1.5,1.1-3.3,1.9-5.3,2.4c-2,0.5-4.2,0.8-6.6,0.8H203.8
		z"/>
	<path class="st0" d="M241.2,191L241.2,191l2.5-22.8l0,0c0.4-2.9,2.1-5.5,4.6-7.3c2.4-1.8,5.6-2.9,9.2-3.1h0.1l15.9,0l1.5,0
		l-0.8,7.7h-14c-2,0.1-3.8,0.3-5.2,1c-1.2,0.6-2.1,1.7-2.5,3.7l-0.8,7.2l-0.5,4.6l-0.8,7.3l0-0.1c-0.1,2,0.6,3.1,1.7,3.7
		c1.2,0.7,3,0.9,5,1h14l-0.8,7.7l-1.5,0l-15.9,0h-0.1c-3.5-0.2-6.5-1.3-8.5-3.1C242.1,196.5,240.9,194,241.2,191z"/>
	<path class="st1" d="M40.9,229.4l2.4-16.2h8.6l-0.3,1.9h-6.5l-0.7,4.9h5.7l-0.3,2h-5.7l-1.1,7.3H40.9L40.9,229.4z M59.4,229.4
		l1.6-10.7h-2.5c-1.5,0-2.6,0.2-3.6,0.6c-0.9,0.4-1.7,1.1-2.4,2c-0.4,0.6-0.8,1.2-1,1.9c-0.2,0.7-0.4,1.4-0.4,2.1
		c0,1.2,0.3,2.3,1,3.1c0.7,0.8,1.5,1.2,2.6,1.2c0.5,0,1-0.1,1.5-0.4c0.5-0.3,0.9-0.6,1.3-1.2l-0.2,1.3H59.4L59.4,229.4z M57.8,226.1
		c-0.4,0.6-0.7,1.1-1.2,1.4c-0.4,0.3-0.9,0.4-1.3,0.4c-0.6,0-1.1-0.3-1.5-0.8c-0.4-0.5-0.6-1.2-0.6-2c0-1.4,0.4-2.5,1.3-3.4
		c0.9-0.9,2-1.3,3.5-1.3c0.1,0,0.3,0,0.3,0c0.1,0,0.1,0,0.2,0L57.8,226.1L57.8,226.1z M70.5,229.4h-9.7l0-0.2l7-8.6h-5.5l0.3-1.8h9
		v0.2l-6.9,8.6h6.2L70.5,229.4L70.5,229.4z M80.5,226.3l-0.3,2.2c-0.6,0.4-1.2,0.7-1.8,0.9c-0.6,0.2-1.2,0.3-1.8,0.3
		c-1.3,0-2.4-0.5-3.3-1.4c-0.9-0.9-1.3-2.1-1.3-3.6c0-1.8,0.5-3.2,1.5-4.4c1-1.2,2.2-1.7,3.7-1.7c1.2,0,2.2,0.4,2.8,1.1
		c0.7,0.7,1,1.8,1,3.1v1.2h-6.7l0,0.7v0.3c0,0.9,0.2,1.6,0.7,2.2c0.5,0.6,1.1,0.9,1.8,0.9c0.6,0,1.2-0.1,1.8-0.4
		C79.1,227.3,79.8,226.9,80.5,226.3L80.5,226.3z M74.6,222.4h4.5v-0.3c0-0.6-0.2-1.1-0.5-1.4c-0.3-0.4-0.8-0.5-1.4-0.5
		c-0.7,0-1.2,0.2-1.6,0.5C75.1,221.1,74.8,221.6,74.6,222.4L74.6,222.4z M82.4,229.4l1.6-10.7h2.1l-0.3,1.7c0.7-0.7,1.3-1.2,1.9-1.5
		c0.6-0.3,1.2-0.5,1.9-0.5c0.8,0,1.4,0.3,1.9,0.8c0.4,0.5,0.7,1.2,0.7,2.2c0,0.2,0,0.5,0,0.8c0,0.3-0.1,0.6-0.1,0.9l-0.9,6.4H89
		l1-6.9c0-0.2,0.1-0.4,0.1-0.6c0-0.2,0-0.3,0-0.4c0-0.4-0.1-0.7-0.3-0.9c-0.2-0.2-0.5-0.3-0.9-0.3c-0.5,0-1,0.2-1.5,0.5
		c-0.5,0.4-1.1,0.9-1.7,1.6l-1.1,7H82.4L82.4,229.4z M102.1,229.5c-0.7,0.1-1.2,0.1-1.6,0.1c-0.4,0-0.8,0-1.1,0
		c-1.7,0-3.1-0.4-4.1-1.2c-1-0.8-1.5-2-1.5-3.4c0-1,0.2-2,0.7-2.9c0.5-0.9,1.2-1.7,2-2.3c0.6-0.4,1.3-0.8,2-1
		c0.8-0.2,1.6-0.3,2.6-0.3h0.5l0.7-5.2h2.1L102.1,229.5L102.1,229.5z M100.3,227.8l1.1-7.6c-0.1,0-0.1,0-0.2,0c-0.1,0-0.2,0-0.2,0
		c-1.5,0-2.7,0.4-3.6,1.2c-0.9,0.8-1.4,1.9-1.4,3.2c0,1,0.3,1.8,0.9,2.3c0.6,0.6,1.4,0.9,2.3,0.9c0.2,0,0.4,0,0.6,0
		C100,227.9,100.2,227.9,100.3,227.8L100.3,227.8z M104.8,224.9c0-1.8,0.5-3.3,1.5-4.5c1-1.2,2.2-1.8,3.6-1.8c1.3,0,2.3,0.4,3.1,1.3
		c0.8,0.9,1.1,2,1.1,3.5c0,1.8-0.5,3.3-1.5,4.5c-1,1.2-2.3,1.8-3.8,1.8c-1.3,0-2.3-0.4-3-1.3C105.2,227.5,104.8,226.4,104.8,224.9
		L104.8,224.9z M110,220.2c-0.8,0-1.5,0.5-2.1,1.4c-0.6,0.9-0.9,2.1-0.9,3.4c0,0.9,0.2,1.6,0.5,2.1c0.4,0.5,0.8,0.8,1.5,0.8
		c0.9,0,1.6-0.5,2.2-1.4c0.6-0.9,0.9-2.1,0.9-3.5c0-0.9-0.2-1.6-0.5-2.1C111.1,220.5,110.6,220.2,110,220.2L110,220.2z M122.9,234.8
		h-2.1l2-13.3c-0.4,0.3-0.8,0.7-1.1,1.2c-0.3,0.5-0.5,0.7-0.6,0.7c0,0-0.1,0-0.1-0.1c0,0-0.1-0.1-0.1-0.2c0-0.3,0.2-0.7,0.6-1.4
		c0.4-0.6,0.9-1.2,1.5-1.7l0.6-3.9h2l-0.4,2.7c0.3-0.1,0.6-0.2,0.9-0.3c0.3-0.1,0.6-0.1,0.9-0.1c1.3,0,2.4,0.5,3.2,1.4
		c0.8,0.9,1.2,2.2,1.2,3.8c0,1-0.3,1.9-0.8,2.9c-0.5,0.9-1.2,1.6-2.1,2.2c-0.5,0.3-1.1,0.5-1.8,0.6c-0.7,0.1-1.5,0.2-2.5,0.2h-0.6
		L122.9,234.8L122.9,234.8z M123.9,227.9c0.1,0,0.2,0,0.2,0c0.1,0,0.2,0,0.4,0c1.5,0,2.7-0.4,3.5-1.2c0.8-0.8,1.3-1.8,1.3-3.2
		c0-1.1-0.3-1.9-0.8-2.6c-0.5-0.6-1.3-0.9-2.2-0.9c-0.2,0-0.4,0-0.6,0.1c-0.2,0.1-0.4,0.1-0.7,0.2L123.9,227.9L123.9,227.9z
		 M141,229.4h-2l0.2-1.3c-0.4,0.5-0.9,0.9-1.3,1.2c-0.5,0.2-1,0.4-1.5,0.4c-1,0-1.9-0.4-2.6-1.2c-0.7-0.8-1-1.8-1-3.1
		c0-0.7,0.1-1.4,0.4-2.1c0.2-0.7,0.6-1.3,1-1.9c0.7-0.9,1.5-1.6,2.4-2c0.9-0.4,2.1-0.6,3.6-0.6h2.5L141,229.4L141,229.4z
		 M139.5,226.1l0.8-5.6c-0.1,0-0.1,0-0.2,0c-0.1,0-0.2,0-0.3,0c-1.4,0-2.6,0.4-3.5,1.3c-0.9,0.9-1.3,2-1.3,3.4c0,0.8,0.2,1.5,0.6,2
		c0.4,0.5,0.9,0.8,1.5,0.8c0.5,0,0.9-0.2,1.3-0.4C138.8,227.2,139.2,226.7,139.5,226.1L139.5,226.1z M145.6,229.4h-2l1.6-10.7h2
		l-0.3,2c0.5-0.8,1-1.4,1.4-1.7c0.4-0.3,0.9-0.5,1.4-0.5c0.1,0,0.3,0,0.4,0c0.2,0,0.3,0.1,0.5,0.1l-0.5,1.9c-0.1,0-0.2,0-0.3-0.1
		c-0.1,0-0.2,0-0.3,0c-0.6,0-1.1,0.2-1.6,0.7c-0.5,0.4-0.9,1.1-1.4,2.1L145.6,229.4L145.6,229.4z M154.4,224.9
		c-0.1,0.3-0.1,0.6-0.1,0.9c0,0.2,0,0.4,0,0.6c0,0.4,0.1,0.8,0.3,1c0.2,0.2,0.6,0.3,1,0.3c0.3,0,0.5-0.1,0.8-0.2
		c0.3-0.1,0.6-0.3,1-0.5v1.9c-0.5,0.2-0.9,0.4-1.3,0.5c-0.4,0.1-0.8,0.2-1.1,0.2c-0.9,0-1.6-0.3-2.1-0.8c-0.5-0.5-0.8-1.2-0.8-2.1
		c0-0.2,0-0.5,0.1-0.8c0-0.3,0.1-0.7,0.2-1.1l0.9-4.6h-1.8l0.3-1.5h1.8l0.5-2.2h2.1l-0.5,2.2h2.1l-0.3,1.5h-2.1L154.4,224.9
		L154.4,224.9z M167.5,226.3l-0.3,2.2c-0.6,0.4-1.2,0.7-1.8,0.9c-0.6,0.2-1.2,0.3-1.8,0.3c-1.3,0-2.4-0.5-3.3-1.4
		c-0.9-0.9-1.3-2.1-1.3-3.6c0-1.8,0.5-3.2,1.5-4.4c1-1.2,2.2-1.7,3.7-1.7c1.2,0,2.2,0.4,2.8,1.1c0.7,0.7,1,1.8,1,3.1v1.2h-6.7l0,0.7
		v0.3c0,0.9,0.2,1.6,0.7,2.2c0.5,0.6,1.1,0.9,1.8,0.9c0.6,0,1.2-0.1,1.8-0.4C166.1,227.3,166.7,226.9,167.5,226.3L167.5,226.3z
		 M161.5,222.4h4.5v-0.3c0-0.6-0.2-1.1-0.5-1.4c-0.3-0.4-0.8-0.5-1.4-0.5c-0.7,0-1.2,0.2-1.6,0.5
		C162.1,221.1,161.7,221.6,161.5,222.4L161.5,222.4z M183.7,229.5c-0.7,0.1-1.2,0.1-1.6,0.1c-0.4,0-0.8,0-1.1,0
		c-1.7,0-3.1-0.4-4.1-1.2s-1.5-2-1.5-3.4c0-1,0.2-2,0.7-2.9c0.5-0.9,1.2-1.7,2-2.3c0.6-0.4,1.3-0.8,2-1c0.8-0.2,1.6-0.3,2.6-0.3h0.5
		l0.7-5.2h2.1L183.7,229.5L183.7,229.5z M181.9,227.8l1.1-7.6c-0.1,0-0.1,0-0.2,0c-0.1,0-0.2,0-0.2,0c-1.5,0-2.7,0.4-3.6,1.2
		c-0.9,0.8-1.4,1.9-1.4,3.2c0,1,0.3,1.8,0.9,2.3c0.6,0.6,1.4,0.9,2.3,0.9c0.2,0,0.4,0,0.6,0C181.6,227.9,181.8,227.9,181.9,227.8
		L181.9,227.8z M194.7,229.4h-2l0.2-1.3c-0.4,0.5-0.9,0.9-1.3,1.2c-0.5,0.2-1,0.4-1.5,0.4c-1,0-1.9-0.4-2.6-1.2
		c-0.7-0.8-1-1.8-1-3.1c0-0.7,0.1-1.4,0.4-2.1c0.2-0.7,0.6-1.3,1-1.9c0.7-0.9,1.5-1.6,2.4-2c0.9-0.4,2.1-0.6,3.6-0.6h2.5
		L194.7,229.4L194.7,229.4z M193.2,226.1l0.8-5.6c-0.1,0-0.1,0-0.2,0c-0.1,0-0.2,0-0.3,0c-1.4,0-2.6,0.4-3.5,1.3
		c-0.9,0.9-1.3,2-1.3,3.4c0,0.8,0.2,1.5,0.6,2c0.4,0.5,0.9,0.8,1.5,0.8c0.5,0,0.9-0.2,1.3-0.4C192.4,227.2,192.8,226.7,193.2,226.1
		L193.2,226.1z M203,228.2l0.5-2c0.7,0.6,1.3,1,1.8,1.2c0.5,0.2,1,0.4,1.4,0.4c0.4,0,0.8-0.1,1-0.3c0.3-0.2,0.4-0.5,0.4-0.8
		c0-0.5-0.6-1.2-1.9-2.1l0,0c-1-0.7-1.6-1.3-1.9-1.7c-0.3-0.4-0.4-0.9-0.4-1.5c0-0.9,0.3-1.6,0.9-2.1c0.6-0.5,1.4-0.8,2.5-0.8
		c0.6,0,1.2,0.1,1.8,0.3c0.6,0.2,1.1,0.5,1.6,0.8l-0.2,2.1c-0.6-0.5-1.2-0.8-1.7-1.1c-0.6-0.2-1.1-0.4-1.6-0.4
		c-0.4,0-0.7,0.1-0.9,0.3c-0.2,0.2-0.3,0.4-0.3,0.7c0,0.4,0.5,1,1.5,1.6c0.4,0.3,0.8,0.6,1.1,0.8c0.7,0.5,1.1,1,1.4,1.4
		c0.3,0.4,0.4,0.9,0.4,1.5c0,0.9-0.3,1.6-1,2.2c-0.7,0.6-1.5,0.9-2.5,0.9c-0.6,0-1.3-0.1-1.9-0.4C204.3,229.1,203.6,228.7,203,228.2
		L203,228.2z M222,218.8l-1.6,10.7h-2.1l0.2-1.7c-0.7,0.7-1.3,1.2-1.9,1.5c-0.6,0.3-1.2,0.5-1.9,0.5c-0.8,0-1.4-0.3-1.9-0.8
		c-0.4-0.5-0.7-1.2-0.7-2.2c0-0.2,0-0.5,0-0.8c0-0.3,0.1-0.6,0.1-0.9l1-6.3h2l-0.9,6.8c0,0.2-0.1,0.4-0.1,0.6c0,0.2,0,0.3,0,0.5
		c0,0.4,0.1,0.7,0.3,0.9c0.2,0.2,0.5,0.3,0.9,0.3c0.5,0,1-0.2,1.5-0.5c0.5-0.4,1.1-0.9,1.7-1.6l1.1-7H222L222,218.8z M231.5,229.4
		h-2l0.2-1.3c-0.4,0.5-0.9,0.9-1.3,1.2c-0.5,0.2-1,0.4-1.5,0.4c-1,0-1.9-0.4-2.6-1.2c-0.7-0.8-1-1.8-1-3.1c0-0.7,0.1-1.4,0.4-2.1
		c0.2-0.7,0.6-1.3,1-1.9c0.7-0.9,1.5-1.6,2.4-2c0.9-0.4,2.1-0.6,3.6-0.6h2.5L231.5,229.4L231.5,229.4z M230,226.1l0.8-5.6
		c-0.1,0-0.1,0-0.2,0c-0.1,0-0.2,0-0.3,0c-1.4,0-2.6,0.4-3.5,1.3c-0.9,0.9-1.3,2-1.3,3.4c0,0.8,0.2,1.5,0.6,2
		c0.4,0.5,0.9,0.8,1.5,0.8c0.5,0,0.9-0.2,1.3-0.4C229.3,227.2,229.7,226.7,230,226.1L230,226.1z M243.4,229.4h-1l-2.4-10.7h2.1
		l1.4,6.6l3.3-6.6h2.1L243.4,229.4L243.4,229.4z M250.9,215.4c0-0.3,0.1-0.6,0.3-0.8c0.2-0.2,0.5-0.3,0.8-0.3c0.3,0,0.6,0.1,0.8,0.3
		c0.2,0.2,0.3,0.5,0.3,0.8c0,0.3-0.1,0.6-0.3,0.8c-0.2,0.2-0.5,0.3-0.8,0.3c-0.3,0-0.6-0.1-0.8-0.3C251,216,250.9,215.8,250.9,215.4
		L250.9,215.4z M251,229.4H249l1.6-10.7h2.1L251,229.4L251,229.4z M262.4,229.5c-0.7,0.1-1.2,0.1-1.6,0.1c-0.4,0-0.8,0-1.1,0
		c-1.7,0-3.1-0.4-4.1-1.2s-1.5-2-1.5-3.4c0-1,0.2-2,0.7-2.9c0.5-0.9,1.2-1.7,2-2.3c0.6-0.4,1.3-0.8,2-1c0.8-0.2,1.6-0.3,2.6-0.3h0.5
		l0.7-5.2h2.1L262.4,229.5L262.4,229.5z M260.5,227.8l1.1-7.6c-0.1,0-0.1,0-0.2,0c-0.1,0-0.2,0-0.2,0c-1.5,0-2.7,0.4-3.6,1.2
		c-0.9,0.8-1.4,1.9-1.4,3.2c0,1,0.3,1.8,0.9,2.3c0.6,0.6,1.4,0.9,2.3,0.9c0.2,0,0.4,0,0.6,0C260.2,227.9,260.4,227.9,260.5,227.8
		L260.5,227.8z M273.3,229.4h-2l0.2-1.3c-0.4,0.5-0.9,0.9-1.3,1.2c-0.5,0.2-1,0.4-1.5,0.4c-1,0-1.9-0.4-2.6-1.2
		c-0.7-0.8-1-1.8-1-3.1c0-0.7,0.1-1.4,0.4-2.1c0.2-0.7,0.6-1.3,1-1.9c0.7-0.9,1.5-1.6,2.4-2c0.9-0.4,2.1-0.6,3.6-0.6h2.5
		L273.3,229.4L273.3,229.4z M271.8,226.1l0.8-5.6c-0.1,0-0.1,0-0.2,0c-0.1,0-0.2,0-0.3,0c-1.4,0-2.6,0.4-3.5,1.3
		c-0.9,0.9-1.3,2-1.3,3.4c0,0.8,0.2,1.5,0.6,2c0.4,0.5,0.9,0.8,1.5,0.8c0.5,0,0.9-0.2,1.3-0.4C271.1,227.2,271.4,226.7,271.8,226.1z
		"/>
</g>
</svg>
